HIERARCHY
ROOT Hips
{
  OFFSET 263.056 91.6644 -274.608
  CHANNELS 6 Xposition Yposition Zposition Zrotation Xrotation Yrotation
  JOINT LeftUpLeg
  {
    OFFSET 8.64259 1.95398 -2.38835
    CHANNELS 3 Zrotation Xrotation Yrotation
    JOINT LeftLeg
    {
      OFFSET 43.7702 0 0
      CHANNELS 3 Zrotation Xrotation Yrotation
      JOINT LeftFoot
      {
        OFFSET 40.6238 0 0
        CHANNELS 3 Zrotation Xrotation Yrotation
        JOINT LeftToeBase
        {
          OFFSET 12.7242 0 0
          CHANNELS 3 Zrotation Xrotation Yrotation
          End Site
          {
            OFFSET 0 0 0
          }
        }
      }
    }
  }
  JOINT RightUpLeg
  {
    OFFSET -8.2249 1.95398 -2.59336
    CHANNELS 3 Zrotation Xrotation Yrotation
    JOINT RightLeg
    {
      OFFSET 43.5653 0 0
      CHANNELS 3 Zrotation Xrotation Yrotation
      JOINT RightFoot
      {
        OFFSET 40.6238 0 0
        CHANNELS 3 Zrotation Xrotation Yrotation
        JOINT RightToeBase
        {
          OFFSET 12.7242 0 0
          CHANNELS 3 Zrotation Xrotation Yrotation
          End Site
          {
            OFFSET 0 0 0
          }
        }
      }
    }
  }
  JOINT Spine
  {
    OFFSET 0.165834 0.87714 6.61349
    CHANNELS 3 Zrotation Xrotation Yrotation
    JOINT Spine1
    {
      OFFSET 7.38963 1.71661e-005 0
      CHANNELS 3 Zrotation Xrotation Yrotation
      JOINT Spine2
      {
        OFFSET 11.9445 1.14441e-005 0
        CHANNELS 3 Zrotation Xrotation Yrotation
        JOINT Spine3
        {
          OFFSET 14.7254 4.19617e-005 0
          CHANNELS 3 Zrotation Xrotation Yrotation
          JOINT Spine4
          {
            OFFSET 10.9679 0 0
            CHANNELS 3 Zrotation Xrotation Yrotation
            JOINT RightShoulder
            {
              OFFSET 2.46616 -1.6653 3.69651
              CHANNELS 3 Zrotation Xrotation Yrotation
              JOINT RightArm
              {
                OFFSET 13.0012 0 0
                CHANNELS 3 Zrotation Xrotation Yrotation
                JOINT RightForeArm
                {
                  OFFSET 28.7848 1.52588e-005 0
                  CHANNELS 3 Zrotation Xrotation Yrotation
                  JOINT RightHand
                  {
                    OFFSET 26.5688 1.52588e-005 0
                    CHANNELS 3 Zrotation Xrotation Yrotation
                    End Site
                    {
                      OFFSET 0 0 0
                    }
                  }
                }
              }
            }
            JOINT LeftShoulder
            {
              OFFSET 2.38034 -1.29275 -3.7523
              CHANNELS 3 Zrotation Xrotation Yrotation
              JOINT LeftArm
              {
                OFFSET 16.3182 6.10352e-005 0
                CHANNELS 3 Zrotation Xrotation Yrotation
                JOINT LeftForeArm
                {
                  OFFSET 27.0901 0 0
                  CHANNELS 3 Zrotation Xrotation Yrotation
                  JOINT LeftHand
                  {
                    OFFSET 24.5451 1.52588e-005 0
                    CHANNELS 3 Zrotation Xrotation Yrotation
                    End Site
                    {
                      OFFSET 0 0 0
                    }
                  }
                }
              }
            }
            JOINT Neck
            {
              OFFSET 5.0226 -0.0266342 0
              CHANNELS 3 Zrotation Xrotation Yrotation
              JOINT Head
              {
                OFFSET 6.69364 2.86102e-005 0
                CHANNELS 3 Zrotation Xrotation Yrotation
                End Site
                {
                  OFFSET 0 0 0
                }
              }
            }
          }
        }
      }
    }
  }
}
MOTION
Frames:	15
Frame Time:	0.0416667
32.0678 95.9376 58.3858 92.399 -9.89114 87.2431 -169.976 9.794 98.44 -24.5298 5.23624 0.130632 51.3852 -3.97499 4.00784 35.4515 7.43036 -1.54867 174.677 11.3028 86.6141 -31.4006 21.9616 0.866427 67.0555 -2.98205 -1.64119 40.4231 1.02241 7.84846 -0.23908 7.86675 -90.0262 11.1404 -0.487924 -0.00472994 -0.530486 -0.487658 0.0167433 -23.0663 -0.463934 -0.151155 -3.05368 -0.463956 -0.151167 80.068 -53.2767 -114.528 15.0062 1.14145 14.6287 -13.5841 -9.58375 -52.0484 -10.8045 -0.699475 2.03733 -101.117 -42.1195 59.131 -28.0572 -2.44613 14.0604 6.8052 1.03867 -40.4261 11.4382 0.751873 2.5813 -3.19449 10.6029 0.478463 5.85853 11.0694 8.02814 
31.954 95.7768 58.5558 91.5726 -3.02038 86.2955 -171.284 11.139 98.14 -22.5967 10.4567 0.525456 50.9402 -4.28382 3.85895 37.3283 9.34766 -3.47226 175.623 11.2092 86.2672 -31.4499 17.3809 -0.995749 67.2106 -2.76322 -1.5136 41.9867 1.24342 7.82165 -0.163426 7.94516 -90.0597 10.9835 -0.352948 -0.0851993 -0.687438 -0.356365 -0.0695908 -23.2229 -0.311033 -0.187345 -3.21025 -0.311036 -0.18734 80.0512 -52.807 -114.728 15.9523 0.460958 14.502 -13.7713 -9.42216 -53.8812 -10.6808 -0.747635 2.69279 -101.067 -42.6141 59.4277 -27.7576 -2.27643 13.2756 6.96676 1.17675 -42.1222 11.8508 0.719332 2.11358 -3.36792 21.5583 2.82822 3.29995 21.6155 10.3061 
31.5853 95.6778 58.6375 90.3986 2.99919 85.9295 -172.313 13.662 97.334 -21.4612 12.8062 0.563423 50.8525 -4.21624 3.73471 37.2792 9.12467 -7.11721 176.563 10.9582 86.1392 -30.7155 14.6532 -2.65749 67.7193 -2.5626 -1.38991 43.9834 1.57945 9.11067 -0.119611 7.96927 -90.0201 10.9354 -0.247411 -0.0164909 -0.735467 -0.24791 -0.00558638 -23.2708 -0.231019 -0.0900841 -3.25818 -0.231006 -0.0900831 80.1183 -52.5347 -114.735 17.2646 -0.130434 13.7389 -13.6421 -9.04248 -54.5991 -9.44502 -0.66432 2.49972 -101.262 -42.6617 59.1467 -28.1116 -1.79248 12.3777 6.89368 1.46186 -41.4926 12.3628 0.844525 2.84968 -4.15022 26.5486 4.33394 1.96332 26.3972 11.7314 
30.9313 95.7867 58.335 89.4137 7.22792 86.5401 -173.03 15.276 96.6638 -20.1358 13.4933 0.652265 51.3466 -3.9076 2.5011 35.0466 6.96461 -3.96955 176.098 10.9773 86.0824 -29.1465 17.2986 -1.72762 67.7801 -2.40925 -1.31163 42.7432 1.38817 8.81663 0.036483 8.06775 -90.0075 10.7384 0.0692269 -0.0211817 -0.932546 0.0682521 -0.0242222 -23.4677 0.0724014 0.000604095 -3.45506 0.0724187 0.000606845 79.7005 -52.4037 -115.387 17.4618 -1.78931 11.5488 -15.093 -9.95206 -55.1384 -9.95873 -0.716032 2.74342 -102.279 -42.9564 57.7177 -28.6378 -2.20143 12.7851 6.12623 0.259975 -40.4948 12.7269 0.870387 2.8708 -3.63286 27.2994 5.2371 1.87991 26.9978 11.5497 
30.2028 95.7151 57.5229 88.1931 10.295 87.684 -173.443 17.2273 96.5299 -19.995 15.392 0.669415 53.4186 -2.72344 2.01562 33.0729 4.91233 -2.59504 175.308 11.0409 86.1591 -27.2695 20.4002 -0.0633684 68.0218 -2.64043 -1.4435 41.5837 1.25686 9.43338 0.0700947 8.13424 -90.0698 10.6055 0.107193 -0.148328 -1.06544 0.100556 -0.152909 -23.6006 0.146841 -0.109244 -3.58793 0.14681 -0.109258 80.3003 -51.3683 -114.915 17.9295 -4.45307 8.3711 -18.6348 -12.2723 -57.8721 -9.63503 -0.669154 2.12238 -102.399 -43.1107 57.6041 -30.5747 -1.25665 13.6931 5.57372 0.143278 -39.0785 12.4946 0.697128 1.65638 -2.07948 26.8958 4.92074 2.3411 26.5724 11.8498 
29.7277 95.474 55.9013 86.684 14.7635 89.0771 -172.556 18.9966 96.3934 -18.1356 17.0392 -0.365944 53.4741 -2.26913 4.21197 41.9241 13.7227 -6.38153 174.053 11.8367 85.5557 -27.4104 22.888 1.7229 67.8015 -2.67213 -1.47168 41.9707 1.19628 7.21994 -0.0096309 8.13267 -90.0696 10.6086 -0.0509392 -0.133672 -1.06234 -0.0567779 -0.131308 -23.5975 -0.00839584 -0.142798 -3.58482 -0.00841306 -0.142807 79.9985 -51.925 -115.14 16.6471 -7.86181 6.02934 -21.8658 -12.6435 -61.9586 -10.6619 -0.679848 1.589 -102.348 -43.1607 57.7047 -32.5799 0.276291 13.8981 5.00076 0.675738 -36.6073 11.7877 0.626141 1.39456 0.0965079 25.9654 3.16181 2.6267 25.7884 12.4458 
29.7711 95.5124 53.4003 85.4109 20.9246 90.9972 -169.659 22.2895 96.4606 -18.5569 9.8162 -2.5105 57.0194 1.61519 8.15739 42.811 15.409 -0.920537 173.352 10.5663 85.5498 -25.7143 27.4001 2.82015 66.3581 -2.71501 -1.51869 41.2779 0.950807 3.88936 -0.00656134 8.08356 -90.0155 10.7067 -0.0200855 -0.0290596 -0.964244 -0.0213549 -0.0281521 -23.4994 -0.0104322 -0.0337567 -3.48675 -0.0104146 -0.0337538 80.0651 -51.8948 -115.055 18.0782 -9.49021 5.82617 -23.3614 -11.4436 -65.566 -14.0549 -0.950156 2.783 -101.631 -43.045 58.7504 -34.3446 1.65857 13.1966 4.81922 1.98701 -34.6934 11.9917 0.766159 2.42712 2.29764 24.1834 0.754475 2.83504 24.3135 12.7073 
30.2006 95.5455 49.5852 84.8943 27.9106 93.4935 -166.834 26.5224 96.7581 -23.7895 -9.68913 -4.10997 59.7219 2.61624 6.83429 36.6915 8.70679 -2.92935 173.184 5.36208 85.8952 -19.8431 34.4628 3.29841 62.6038 -3.02887 -1.73143 43.2483 1.16199 4.24559 0.0683646 8.03631 -90.0284 10.8013 0.123059 -0.0679439 -0.869657 0.119945 -0.0732994 -23.4048 0.13779 -0.0278148 -3.3922 0.137792 -0.0278225 80.6785 -51.139 -114.45 20.4744 -9.79959 7.23936 -24.069 -10.2872 -67.1275 -13.4048 -1.0149 3.84021 -101.453 -43.495 59.2225 -35.8202 1.02183 13.2223 5.73653 3.02927 -34.3796 10.2917 0.62525 2.07363 3.40351 21.8463 -0.558363 3.46405 22.2326 12.2546 
31.0061 94.3691 43.8477 84.5193 33.2367 95.6136 -165.515 28.1241 95.2384 -28.6877 -10.4539 -5.26023 61.0918 5.56608 10.9601 31.4827 3.45802 -7.04921 172.319 1.54269 84.8894 -18.4711 36.5494 3.43099 60.7516 -3.10292 -1.80041 46.724 1.19029 1.6373 0.357255 7.94044 -89.8699 10.9929 0.77152 0.185176 -0.677872 0.77892 0.151036 -23.2144 0.680191 0.408497 -3.20178 0.680177 0.408489 81.4198 -50.7443 -113.509 22.4734 -9.6877 8.81158 -21.728 -10.5007 -65.0947 -12.9705 -0.971093 3.64789 -100.647 -43.1247 60.2991 -37.1836 1.32388 13.9021 5.18433 2.29027 -34.5963 10.7308 0.658437 2.14231 5.57246 19.0912 -3.43934 3.04977 19.9329 11.3143 
31.2233 92.8715 36.383 84.5443 37.9791 96.0091 -165.84 27.4917 90.9341 -34.7283 -6.26025 -5.23736 65.5145 12.3979 14.2047 34.7597 6.60182 -17.4275 170.74 3.95844 80.5834 -28.7889 32.0489 1.75386 55.4683 -1.74584 -0.957878 46.0022 0.63015 -6.42053 0.545459 7.93157 -89.649 11.0079 1.24849 0.579621 -0.662544 1.27282 0.5241 -23.2003 1.01657 0.928071 -3.18765 1.01657 0.928064 81.4844 -50.1004 -113.653 23.8402 -7.89752 10.8196 -18.9503 -11.3011 -60.4233 -12.5687 -0.903178 3.19178 -101.197 -43.6184 59.6697 -36.4624 1.48309 13.1895 4.91197 2.25731 -33.2691 10.6232 0.692799 2.50027 6.64086 16.8146 -3.24607 3.55895 17.6161 9.41352 
31.269 92.082 29.003 85.1061 47.5962 95.9583 -167.224 23.1643 87.2461 -35.8745 -1.08111 -4.92176 68.6196 18.5663 18.0439 39.9602 10.7186 -19.1272 172.396 10.9421 81.0446 -46.9888 18.3206 -1.3981 55.1201 -0.809239 -0.326714 38.8336 0.565961 -1.56347 0.239508 8.04441 -89.5249 10.7811 0.696181 0.879886 -0.889968 0.734224 0.848389 -23.4232 0.399545 1.04841 -3.41056 0.399562 1.04841 80.8749 -50.9452 -114.236 24.853 -5.09583 13.501 -15.4461 -11.8708 -54.1443 -9.53535 -0.725585 3.10117 -102.036 -43.5267 58.3455 -32.729 1.58083 12.2371 5.15193 2.30608 -34.8555 9.57032 0.532672 1.58993 5.16843 14.0007 -2.61471 5.7064 14.8101 8.1532 
31.6962 92.5749 21.3842 81.0391 58.4445 100.603 -170.19 18.2442 85.5956 -32.6359 3.62594 -3.69169 72.3716 20.9536 16.3109 38.2546 9.73785 -12.6148 175.283 19.0798 86.8301 -55.8189 7.16837 -1.74493 58.6534 -1.31776 -0.71323 41.4713 0.915023 2.7886 -0.153644 7.97417 -89.6561 10.9255 -0.146799 0.69793 -0.745641 -0.11595 0.703711 -23.2796 -0.349771 0.62155 -3.26697 -0.349783 0.62155 81.2878 -51.2182 -113.527 26.7287 -4.92192 16.6657 -14.3838 -13.2176 -49.6577 -5.71061 -0.524477 3.41309 -102.104 -43.3264 58.153 -27.7421 1.46171 9.17086 7.05982 3.88792 -40.6393 10.8865 0.797052 3.25573 3.86766 11.1681 -0.781104 7.39778 11.6713 6.39653 
31.9871 94.2687 13.446 75.9764 66.6286 105.872 -173.096 9.03147 84.5092 -22.1061 9.88644 -2.25165 69.5787 17.8329 16.2275 41.2982 13.4375 -3.54111 179.388 26.0998 91.3937 -49.7063 4.2915 -2.36501 63.8134 -2.56436 -1.4706 43.7263 1.24021 4.92655 -0.399778 7.89755 -89.759 11.0803 -0.68382 0.546123 -0.590572 -0.659119 0.57568 -23.1266 -0.816351 0.315356 -3.11396 -0.816336 0.315352 81.6284 -51.565 -112.901 28.6378 -5.8378 20.019 -13.9824 -15.1818 -47.0182 -2.13671 -0.330784 3.58689 -101.814 -42.3742 58.1664 -24.5452 0.519593 5.96595 8.31435 3.55459 -47.0805 13.5329 1.01871 3.55364 2.92726 8.84744 0.129369 6.75519 9.08793 4.84145 
32.5299 94.9132 5.16519 64.5587 74.1648 117.268 -174.29 1.22014 84.78 -14.161 15.0818 -1.4372 66.4235 14.1492 15.2278 44.3305 17.0518 -0.793404 -179.62 31.7868 92.8716 -33.5638 3.47973 -0.395535 64.668 -2.36746 -1.33148 45.6402 0.980261 -1.05016 -0.854384 7.77065 -89.9268 11.3368 -1.66594 0.31301 -0.333125 -1.65055 0.38604 -22.8769 -1.68298 -0.202301 -2.86428 -1.68298 -0.20229 81.9604 -51.8412 -112.316 29.2355 -5.93711 22.2468 -12.8335 -16.2736 -43.9373 -1.78809 -0.31203 3.2264 -101.677 -41.5313 57.993 -21.8341 0.542485 3.76359 9.75973 3.25039 -54.515 13.6178 1.10869 4.14989 3.12882 7.0643 0.989609 6.13609 7.04689 3.38007 
33.2341 93.4038 -3.59127 52.2405 79.8356 129.077 -174.262 -5.52359 84.9568 -12.7788 21.3265 -1.06531 64.7231 13.151 16.6818 46.5074 17.6306 -9.36374 -179.186 33.6821 91.9547 -13.8167 7.2338 1.51527 62.1631 -1.28391 -0.689345 51.759 1.74575 2.47135 -1.2114 7.9077 -90.0011 11.0623 -2.41192 0.230201 -0.606478 -2.39947 0.336198 -23.1591 -2.36954 -0.505745 -3.14645 -2.36954 -0.505746 81.4203 -52.5096 -112.862 28.1442 -4.99222 23.5729 -11.5317 -15.9824 -41.2998 -2.79923 -0.35117 2.45174 -101.478 -39.9077 57.5426 -19.7444 1.87112 1.24166 10.9844 3.34343 -59.4778 14.1464 1.1114 3.89222 5.03411 5.49367 0.5847 5.57485 5.51279 3.04094 
